<svg xmlns="http://www.w3.org/2000/svg" viewBox="0 0 100 100" width="100" height="100">
  <defs>
    <linearGradient id="pythonGradient" x1="0%" y1="0%" x2="100%" y2="100%">
      <stop offset="0%" style="stop-color:#3776AB;stop-opacity:1" />
      <stop offset="100%" style="stop-color:#FFD43B;stop-opacity:1" />
    </linearGradient>
  </defs>
  
  <!-- Background circle -->
  <circle cx="50" cy="50" r="45" fill="url(#pythonGradient)" stroke="#333" stroke-width="2"/>
  
  <!-- Python snake body -->
  <path d="M20 30 Q30 25 40 30 Q50 35 60 30 Q70 25 80 30 L80 40 Q70 45 60 40 Q50 35 40 40 Q30 45 20 40 Z" fill="white"/>
  <path d="M20 50 Q30 45 40 50 Q50 55 60 50 Q70 45 80 50 L80 60 Q70 65 60 60 Q50 55 40 60 Q30 65 20 60 Z" fill="white"/>
  
  <!-- Python head -->
  <circle cx="25" cy="35" r="8" fill="white"/>
  <circle cx="25" cy="35" r="3" fill="#3776AB"/>
  
  <!-- Python tail -->
  <path d="M75 55 Q85 50 80 65 Q75 70 70 65" stroke="white" stroke-width="4" fill="none"/>
</svg> 